<?xml version="1.0" encoding="utf-8"?>
<!-- Generator: Adobe Illustrator 19.0.0, SVG Export Plug-In . SVG Version: 6.00 Build 0)  -->
<svg xmlns="http://www.w3.org/2000/svg" xmlns:xlink="http://www.w3.org/1999/xlink" version="1.1" x="0px" y="0px" viewBox="0 0 658.5 491.9" style="enable-background:new 0 0 658.5 491.9;" xml:space="preserve">
<style type="text/css">
	.st0{opacity:0.1;fill:url(#SVGID_1_);}
	.st1{opacity:0.1;}
	.st2{fill:url(#SVGID_2_);}
	.st3{fill:url(#SVGID_3_);}
	.st4{fill:url(#SVGID_4_);}
	.st5{fill:url(#SVGID_5_);}
	.st6{fill:url(#SVGID_6_);}
	.st7{fill:url(#SVGID_7_);}
	.st8{fill:url(#SVGID_8_);}
	.st9{fill:url(#SVGID_9_);}
	.st10{fill:url(#SVGID_10_);}
	.st11{fill:url(#SVGID_11_);}
	.st12{fill:url(#SVGID_12_);}
	.st13{fill:url(#SVGID_13_);}
	.st14{fill:url(#SVGID_14_);}
	.st15{fill:url(#SVGID_15_);}
	.st16{fill:url(#SVGID_16_);}
	.st17{fill:url(#SVGID_17_);}
	.st18{fill:url(#SVGID_18_);}
	.st19{fill:url(#SVGID_19_);}
	.st20{fill:url(#SVGID_20_);}
	.st21{fill:url(#SVGID_21_);}
	.st22{fill:url(#SVGID_22_);}
	.st23{fill:url(#SVGID_23_);}
	.st24{fill:url(#SVGID_24_);}
	.st25{fill:url(#SVGID_25_);}
	.st26{fill:url(#SVGID_26_);}
	.st27{fill:url(#SVGID_27_);}
	.st28{fill:url(#SVGID_28_);}
	.st29{fill:url(#SVGID_29_);}
	.st30{fill:url(#SVGID_30_);}
	.st31{fill:url(#SVGID_31_);}
	.st32{fill:#FFFFFF;}
	.st33{fill:#EC1C24;}
	.st34{fill:none;stroke:#231F20;stroke-width:6;}
	.st35{fill:#FFFFFF;stroke:#231F20;stroke-width:6;}
	.st36{fill:#231F20;}
	.st37{fill:none;stroke:#231F20;stroke-width:18;}
</style>

<g id="Vector_Graphics">
	<g>
		<path class="st33" d="M256.3,207.9l-160.2-0.2l2.2-10.3l2-8l2.2-7.7l2.3-7.2l2-5.6l2-5.3l2.2-5.3l2.5-5.7l1.8-4l1.4-2.8l1.6-3.4    l1.8-3.5l1.5-2.9l1.7-3.1l1.7-3l1.7-2.9l2.1-3.5l1.9-3l2-3l2-3l2.8-4l2.6-3.6l2.4-3.2l2.7-3.5l2.7-3.3l2.6-3.1l2.9-3.3l2.6-2.9    l3.2-3.4l3.6-3.6l4.1-4l3.8-3.6l3.6-3.2l3.1-2.7l3.8-3.2l4.2-3.4l4-3.1l4.8-3.5l4.5-3.1l4.1-2.7l5.1-3.2l5-3l6.5-3.6l5.5-2.9    l5.2-2.5l4.7-2.2l5.1-2.2l5.8-2.3l7.3-2.6l6.1-2l6.2-1.9l6.3-1.7l6.1-1.4l4.8-1l5.9-1.1l7-1.1l7.9-1l7.1-0.7l6.7-0.4l5.6-0.2    l5.3-0.1l5.6,0.1l5.9,0.2l6.2,0.4l6,0.5l4.9,0.5l5.1,0.7l4.7,0.7l4.6,0.8l4.2,0.8l5.6,1.2l5.1,1.2l4.4,1.2l5.1,1.5l4.9,1.5l5.9,2    l5.7,2.1l5,2l4,1.7l4,1.8l3.6,1.7l3.5,1.7l3,1.5l2.8,1.5l2.7,1.5l3.3,1.8l4.3,2.5l3.8,2.3l4.3,2.7l4.5,3l4.6,3.3l4.4,3.3l4.7,3.7    l4.9,4.1l5.3,4.6l4.3,3.9l4.8,4.7l5.3,5.4l4,4.3l3.9,4.4l3.9,4.7l3.9,4.9l3.3,4.4l2.9,4l2.7,4l2.5,3.8l3.2,5.1l3,5l2.9,5.2    l2.9,5.5l2.6,5.2l2.5,5.5l2.2,5l1.9,4.6l1.4,3.6l2.3,6.4l1.8,5.1l1.4,4.3l1.2,3.9l1.1,3.8l1,3.7l1,4.4l0.9,3.9    c0,0,1.3,6.1,1.3,6.4H398.8L397,204l-1.6-2.2l-1.6-2.1l-1.8-2.2l-2.1-2.4l-1.9-2l-2.2-2.2l-2.3-2.2l-2.2-1.8l-2.1-1.7l-2.2-1.6    l-2.5-1.7l-2.3-1.5l-2.7-1.6l-2.6-1.5l-2.9-1.5l-3.3-1.5c0,0-4.7-1.9-5-2c0,0-3.9-1.3-4.4-1.4l-4.3-1.1l-3.8-0.8l-3.6-0.6l-3-0.4    c0,0-4-0.4-4.9-0.4l-4.3-0.1l-3.7,0.1l-4.2,0.3l-3.3,0.4l-3.3,0.5l-3.5,0.7l-3.8,0.9l-3.4,1.1c0,0-3.5,1.2-4.1,1.4    c0,0-3,1.2-3.8,1.6c0,0-3.8,1.8-4.6,2.2l-3.1,1.7l-3.5,2.1l-3.5,2.3c0,0-3.6,2.7-3.7,2.8c0,0-3.1,2.6-4.2,3.5l-2.2,2.1l-2.5,2.5    c0,0-2.2,2.5-2.6,2.9l-2.4,2.8l-2.4,3.1C259.8,202.7,256.5,207.3,256.3,207.9z"/>
		<path class="st32" d="M399.4,288.9l156.7-0.2l-2.1,10l-1.9,7.7l-2.1,7.5l-2.2,7l-1.9,5.4l-1.9,5.1l-2.1,5.2l-2.4,5.5l-1.8,3.9    l-1.3,2.7l-1.6,3.3l-1.7,3.4l-1.5,2.8l-1.7,3l-1.7,2.9l-1.7,2.8l-2.1,3.4l-1.9,2.9l-1.9,3l-2,2.9l-2.7,3.9l-2.6,3.5l-2.3,3.1    l-2.6,3.4l-2.6,3.2l-2.5,3l-2.8,3.2l-2.5,2.8l-3.1,3.3l-3.5,3.5l-4,3.9l-3.7,3.5l-3.5,3.2l-3,2.6l-3.8,3.1l-4.1,3.3l-3.9,3    l-4.7,3.4l-4.4,3l-4,2.6l-5,3.1l-4.9,2.9l-6.4,3.5l-5.4,2.8l-5.1,2.4l-4.6,2.1l-5,2.1l-5.7,2.3l-7.1,2.6l-6,2l-6,1.8l-6.1,1.7    l-5.9,1.4l-4.7,1l-5.8,1.1l-6.9,1.1l-7.7,1l-6.9,0.7l-6.6,0.4l-5.5,0.2l-5.2,0.1l-5.5,0l-5.8-0.2l-6-0.4l-5.9-0.5l-4.7-0.5l-5-0.6    l-4.6-0.7l-4.5-0.8l-4.1-0.8l-5.5-1.2l-5-1.2l-4.3-1.1l-4.9-1.4l-4.8-1.5l-5.7-1.9l-5.6-2.1l-4.9-1.9l-4-1.6L235,460l-3.5-1.6    l-3.4-1.7l-2.9-1.5l-2.7-1.4l-2.7-1.4l-3.3-1.8l-4.2-2.4l-3.7-2.3l-4.2-2.7l-4.4-2.9l-4.5-3.2l-4.3-3.2l-4.6-3.6l-4.8-3.9    l-5.1-4.5l-4.2-3.8l-4.7-4.5l-5.1-5.3l-3.9-4.2l-3.8-4.3l-3.8-4.6l-3.8-4.8l-3.2-4.3l-2.8-3.9l-2.7-3.9l-2.5-3.7l-3.2-5l-2.9-4.9    l-2.9-5.1l-2.9-5.4l-2.6-5.1l-2.5-5.3l-2.2-4.9l-1.9-4.4l-1.4-3.4l-2.3-6.2l-1.7-5l-1.3-4.2l-1.2-3.8l-1.1-3.7l-1-3.6l-1-4.2    l-0.9-3.8c0,0-1.3-6-1.3-6.2l158.3-0.3l1.7,2.5l1.6,2.2l1.6,2l1.8,2.1l2.1,2.4l1.9,1.9l2.2,2.1l2.3,2.1l2.1,1.8l2.1,1.7l2.1,1.6    l2.4,1.7l2.3,1.5l2.6,1.5l2.6,1.4l2.8,1.4l3.2,1.4c0,0,4.6,1.8,4.9,1.9c0,0,3.9,1.2,4.4,1.4l4.2,1.1l3.7,0.7l3.5,0.6l2.9,0.3    c0,0,3.9,0.3,4.8,0.4l4.2,0.1l3.6-0.1l4.2-0.3l3.2-0.4l3.2-0.5l3.5-0.7l3.7-0.9l3.3-1c0,0,3.4-1.1,4-1.4c0,0,2.9-1.2,3.7-1.5    c0,0,3.7-1.7,4.5-2.2l3-1.7l3.4-2l3.4-2.3c0,0,3.5-2.6,3.6-2.7c0,0,3.1-2.6,4.1-3.4l2.2-2l2.4-2.4c0,0,2.2-2.4,2.6-2.8l2.3-2.7    l2.3-3.1C396,294.1,399.2,289.6,399.4,288.9z"/>
		<g id="XMLID_1_">
			<g>
			</g>
			<g>
				<circle class="st34" cx="329.2" cy="245.4" r="233.7"/>
			</g>
		</g>
		<circle class="st35" cx="329.2" cy="244.2" r="67.3"/>
		<circle class="st35" cx="328.7" cy="244.8" r="43.9"/>
		<line class="st34" x1="273.9" y1="204.9" x2="99" y2="204.9"/>
		<line class="st34" x1="277.4" y1="289.8" x2="102.4" y2="289.8"/>
		<line class="st34" x1="558.9" y1="203.8" x2="384" y2="203.8"/>
		<line class="st34" x1="556.1" y1="288.7" x2="381.1" y2="288.7"/>
		<path class="st36" d="M268.5,208.2"/>
		<path class="st36" d="M271,207c0,0-25,36.5,4.1,80.9l-175.2-0.3c0,0-8.2-39-0.9-81L271,207z"/>
		<path class="st36" d="M386.2,288.3c0,0,24.9-37.3-4.1-82.6l175.2,0.3c0,0,8.2,39.9,0.9,82.7L386.2,288.3z"/>
		<circle class="st37" cx="328.7" cy="246" r="72.4"/>
	</g>
</g>
</svg>
