<svg xmlns="http://www.w3.org/2000/svg" width="28" height="28" fill="none"><path fill="#FF4F68" d="M20.203 10.543h2.774a4.566 4.566 0 0 1-9.085 0h2.774a1.827 1.827 0 0 0 3.537 0m-1.768-5.021a4.566 4.566 0 0 1 4.543 4.108h-2.775a1.827 1.827 0 0 0-3.537 0h-2.774a4.566 4.566 0 0 1 4.543-4.108"/><path fill="#FF4F68" d="M18.435 11a.913.913 0 1 0 0-1.826.913.913 0 0 0 0 1.826m-7.623 7.37h2.774a4.566 4.566 0 0 1-9.085 0h2.774a1.827 1.827 0 0 0 3.537 0m-1.769-5.022a4.566 4.566 0 0 1 4.543 4.108h-2.774a1.827 1.827 0 0 0-3.537 0H4.5a4.566 4.566 0 0 1 4.542-4.108Z"/><path fill="#FF4F68" d="M9.043 18.826a.913.913 0 1 0 0-1.826.913.913 0 0 0 0 1.826"/><path stroke="#FF4F68" stroke-linecap="round" d="M3.517 14.522 2 13.91l6.37-2.443-2.882-6.109 6.219 2.902L13.982 2l1.062 2.749m9.439 8.729L26 14.09l-6.37 2.443 2.882 6.108-6.219-2.9L14.018 26l-1.062-2.749"/></svg>