<svg xmlns="http://www.w3.org/2000/svg" xml:space="preserve" viewBox="0 0 24 24"><path fill="#FF4F68" d="M19.5 0h-15a.5.5 0 0 0-.5.5v23a.5.5 0 0 0 .5.5h15a.5.5 0 0 0 .5-.5V.5a.5.5 0 0 0-.5-.5M19 7v1h-1v12h1v1h-1v2h-1V5h-2.257c-.668 0-1.296.26-1.768.732l-1.243 1.243A3.48 3.48 0 0 1 9.257 8H5V7h4.257c.668 0 1.296-.26 1.768-.732l1.243-1.243A3.48 3.48 0 0 1 14.743 4H19v1h-1v2zM6 15.5v-2a.5.5 0 0 1 .854-.354l1 1a.5.5 0 0 1 0 .708l-1 1A.5.5 0 0 1 6 15.5m3 6a.5.5 0 0 1 .5-.5h5a.5.5 0 1 1 0 1h-5a.5.5 0 0 1-.5-.5m7-19a.5.5 0 1 1-1 0 .5.5 0 0 1 1 0m-2 0a.5.5 0 1 1-1 0 .5.5 0 0 1 1 0m-2 0a.5.5 0 1 1-1 0 .5.5 0 0 1 1 0M10 4c0 1.103-.897 2-2 2s-2-.897-2-2 .897-2 2-2 2 .897 2 2"/></svg>