<svg xmlns="http://www.w3.org/2000/svg" width="24" height="24" fill="none"><path fill="#0E0940" d="m12 21-1.45-1.3q-2.525-2.275-4.175-3.925T3.75 12.812 2.388 10.4A6.7 6.7 0 0 1 2 8.15Q2 5.8 3.575 4.225T7.5 2.65q1.3 0 2.475.55A5.9 5.9 0 0 1 12 4.75a5.9 5.9 0 0 1 2.025-1.55 5.8 5.8 0 0 1 2.475-.55q2.35 0 3.925 1.575T22 8.15a6.7 6.7 0 0 1-.387 2.25q-.388 1.1-1.363 2.412c-.975 1.312-1.525 1.863-2.625 2.963s-2.492 2.408-4.175 3.925zm0-2.7q2.4-2.15 3.95-3.688 1.55-1.537 2.45-2.674t1.25-2.026A4.8 4.8 0 0 0 20 8.15q0-1.5-1-2.5c-1-1-1.5-1-2.5-1q-1.174 0-2.175.662-1 .663-1.375 1.688h-1.9q-.375-1.025-1.375-1.688A3.86 3.86 0 0 0 7.5 4.65q-1.5 0-2.5 1c-1 1-1 1.5-1 2.5q0 .874.35 1.762t1.25 2.026 2.45 2.674A109 109 0 0 0 12 18.3"/></svg>